<svg xmlns="http://www.w3.org/2000/svg" width="29" height="29" viewBox="0 0 29 29" fill="none">
<path d="M27.3008 3.45508H8.60938C7.67237 3.45508 6.91016 4.21729 6.91016 5.1543H0.849609C0.380333 5.1543 0 5.53463 0 6.00391V24.6953C0 25.1646 0.380333 25.5449 0.849609 25.5449H9.3457C9.81498 25.5449 10.1953 25.1646 10.1953 24.6953V20.4473H14.5566V23.8457H12.8574C12.3881 23.8457 12.0078 24.226 12.0078 24.6953C12.0078 25.1646 12.3881 25.5449 12.8574 25.5449H23.0527C23.522 25.5449 23.9023 25.1646 23.9023 24.6953C23.9023 24.226 23.522 23.8457 23.0527 23.8457H21.3535V20.4473H27.3008C28.2378 20.4473 29 19.6851 29 18.748V5.1543C29 4.21729 28.2378 3.45508 27.3008 3.45508ZM1.69922 10.252H6.91016V11.9512H1.69922V10.252ZM6.91016 6.85352V8.55273H1.69922V6.85352H6.91016ZM1.69922 23.8457V13.6504H6.91016V18.748C6.91016 19.6468 7.61175 20.3844 8.49609 20.4431V23.8457H1.69922ZM19.6543 23.8457H16.2559V20.4473H19.6543V23.8457ZM27.3008 18.748H8.60938V5.1543H27.3008V18.748Z" fill="black"/>
<path d="M5.94727 21.9199C5.94727 22.3892 5.56693 22.7695 5.09766 22.7695C4.62838 22.7695 4.24805 22.3892 4.24805 21.9199C4.24805 21.4506 4.62838 21.0703 5.09766 21.0703C5.56693 21.0703 5.94727 21.4506 5.94727 21.9199Z" fill="black"/>
</svg>