<svg xmlns="http://www.w3.org/2000/svg" width="16" height="16" viewBox="0 0 16 16" fill="none">
<path d="M11.8376 15.9974C6.40851 16.1807 -3.37205 6.49505 1.16902 1.24357L1.93688 0.576974C2.32557 0.201855 2.84658 -0.00538285 3.38716 0.000106328C3.92774 0.00559551 4.44442 0.22337 4.82538 0.606304C4.84597 0.627239 4.86515 0.649507 4.8828 0.672964L6.08467 2.23214C6.44992 2.61799 6.65287 3.1291 6.65162 3.66C6.65038 4.19089 6.44505 4.70105 6.078 5.08519L5.30479 6.05576C5.73287 7.0937 6.36205 8.03703 7.15622 8.8316C7.9504 9.62618 8.89393 10.2564 9.93266 10.686L10.9102 9.90938C11.3 9.55198 11.8097 9.35333 12.339 9.35259C12.8682 9.35185 13.3785 9.54907 13.7693 9.90538L15.3317 11.1053C15.3551 11.1228 15.3774 11.1418 15.3985 11.1619C15.7838 11.5501 16 12.0746 16 12.6211C16 13.1676 15.7838 13.6921 15.3985 14.0803L14.7902 14.7802C14.4044 15.1696 13.9444 15.4779 13.4373 15.687C12.9302 15.8961 12.3862 16.0016 11.8376 15.9974ZM3.36377 1.33223C3.26782 1.33216 3.17279 1.35096 3.08411 1.38756C2.99544 1.42416 2.91485 1.47784 2.84697 1.54554L2.07844 2.21214C-1.69143 6.73703 9.84452 17.6126 13.8127 13.8696L14.4216 13.1691C14.494 13.1047 14.553 13.0267 14.595 12.9396C14.6371 12.8524 14.6615 12.7578 14.6667 12.6612C14.672 12.5646 14.6581 12.4679 14.6258 12.3767C14.5934 12.2855 14.5434 12.2016 14.4784 12.1298L12.9247 10.9386C12.9008 10.9211 12.8785 10.9017 12.8579 10.8806C12.7186 10.7481 12.5335 10.6742 12.3411 10.6742C12.1486 10.6742 11.9636 10.7481 11.8243 10.8806C11.8065 10.8985 11.7878 10.9154 11.7682 10.9313L10.4608 11.9712C10.3701 12.0433 10.2621 12.0906 10.1474 12.1083C10.0328 12.1261 9.91552 12.1137 9.80713 12.0725C8.46112 11.5719 7.23861 10.7883 6.22242 9.77484C5.20623 8.76137 4.42011 7.54168 3.9173 6.19841C3.87279 6.08867 3.85836 5.96907 3.87549 5.85191C3.89262 5.73476 3.9407 5.62427 4.01478 5.53181L5.0524 4.22794C5.06783 4.20819 5.08456 4.18949 5.10248 4.17195C5.23887 4.03462 5.31539 3.84906 5.31539 3.65567C5.31539 3.46227 5.23887 3.27671 5.10248 3.13938C5.08167 3.11865 5.06247 3.09637 5.04506 3.07272L3.85454 1.52355C3.72001 1.4022 3.54507 1.33519 3.36377 1.33556V1.33223Z" fill="#E51C23"/>
</svg>