<svg xmlns="http://www.w3.org/2000/svg" width="16" height="16" viewBox="0 0 16 16" fill="none">
<path d="M12.4733 5.47332C12.4114 5.41084 12.3376 5.36124 12.2564 5.32739C12.1752 5.29355 12.088 5.27612 12 5.27612C11.912 5.27612 11.8249 5.29355 11.7436 5.32739C11.6624 5.36124 11.5886 5.41084 11.5267 5.47332L8.47334 8.52665C8.41136 8.58913 8.33763 8.63873 8.25639 8.67257C8.17515 8.70642 8.08801 8.72384 8 8.72384C7.912 8.72384 7.82486 8.70642 7.74362 8.67257C7.66238 8.63873 7.58865 8.58913 7.52667 8.52665L4.47333 5.47332C4.41136 5.41084 4.33763 5.36124 4.25639 5.32739C4.17515 5.29355 4.08801 5.27612 4 5.27612C3.91199 5.27612 3.82486 5.29355 3.74362 5.32739C3.66238 5.36124 3.58864 5.41084 3.52667 5.47332C3.4025 5.59823 3.33281 5.7672 3.33281 5.94332C3.33281 6.11944 3.4025 6.28841 3.52667 6.41332L6.58667 9.47331C6.96167 9.84784 7.47 10.0582 8 10.0582C8.53001 10.0582 9.03834 9.84784 9.41334 9.47331L12.4733 6.41332C12.5975 6.28841 12.6672 6.11944 12.6672 5.94332C12.6672 5.7672 12.5975 5.59823 12.4733 5.47332Z" fill="#151621"/>
</svg>